<?xml version="1.0" encoding="utf-8"?><!DOCTYPE svg PUBLIC "-//W3C//DTD SVG 1.1//EN" "http://www.w3.org/Graphics/SVG/1.1/DTD/svg11.dtd"><svg version="1.1" xmlns="http://www.w3.org/2000/svg" xmlns:xlink="http://www.w3.org/1999/xlink" x="0px" y="0px" viewBox="0 0 99.867 125" enable-background="new 0 0 99.867 100" xml:space="preserve"><g><path fill="#212529" d="M92.73,86.568c4.472-9.061,7.137-20.38,7.137-32.672c0-29.624-15.452-53.652-34.55-53.811V0h-30.51v0.081
		c-0.025,0-0.047-0.004-0.069-0.004C15.552,0.077,0,24.173,0,53.896c0,12.139,2.596,23.332,6.969,32.337
		c-4.043,1.354-6.828,4.932-6.828,7.585c0,3.413,2.941,6.182,6.562,6.182h85.654c3.618,0,6.558-2.769,6.558-6.182
		C98.916,91.181,95.812,87.919,92.73,86.568z M34.738,82.39c-10.159,0-18.392-12.756-18.392-28.494
		c0-15.736,8.233-28.491,18.392-28.491c10.155,0,18.389,12.756,18.389,28.491C53.127,69.634,44.894,82.39,34.738,82.39z"/><path fill="#212529" d="M34.808,75.945c-7.654,0-13.649-9.579-13.649-21.809c0-12.227,5.995-21.807,13.649-21.807
		c7.655,0,13.651,9.579,13.651,21.807C48.458,66.366,42.462,75.945,34.808,75.945L34.808,75.945z M34.808,39.207
		c-3.13,0-6.77,6.522-6.77,14.928c0,8.407,3.639,14.928,6.77,14.928c3.131,0,6.77-6.521,6.77-14.928
		C41.578,45.729,37.938,39.207,34.808,39.207L34.808,39.207z"/></g></svg>