<?xml version="1.0" encoding="UTF-8" standalone="no"?>
<svg
   xmlns:dc="http://purl.org/dc/elements/1.1/"
   xmlns:cc="http://creativecommons.org/ns#"
   xmlns:rdf="http://www.w3.org/1999/02/22-rdf-syntax-ns#"
   xmlns:svg="http://www.w3.org/2000/svg"
   xmlns="http://www.w3.org/2000/svg"
   xmlns:sodipodi="http://sodipodi.sourceforge.net/DTD/sodipodi-0.dtd"
   xmlns:inkscape="http://www.inkscape.org/namespaces/inkscape"
   version="1.1"
   id="svg2"
   xml:space="preserve"
   width="1333.3333"
   height="1333.3333"
   viewBox="0 0 1333.3333 1333.3333"
   sodipodi:docname="Logo45.ai"><metadata
     id="metadata8"><rdf:RDF><cc:Work
         rdf:about=""><dc:format>image/svg+xml</dc:format><dc:type
           rdf:resource="http://purl.org/dc/dcmitype/StillImage" /></cc:Work></rdf:RDF></metadata><defs
     id="defs6"><clipPath
       clipPathUnits="userSpaceOnUse"
       id="clipPath18"><path
         d="M 0,1000 H 1000 V 0 H 0 Z"
         id="path16" /></clipPath></defs><sodipodi:namedview
     pagecolor="#ffffff"
     bordercolor="#666666"
     borderopacity="1"
     objecttolerance="10"
     gridtolerance="10"
     guidetolerance="10"
     inkscape:pageopacity="0"
     inkscape:pageshadow="2"
     inkscape:window-width="640"
     inkscape:window-height="480"
     id="namedview4" /><g
     id="g10"
     inkscape:groupmode="layer"
     inkscape:label="Logo45"
     transform="matrix(1.3333333,0,0,-1.3333333,0,1333.3333)"><g
       id="g12"><g
         id="g14"
         clip-path="url(#clipPath18)"><g
           id="g20"
           transform="translate(635.9785,375.25)"><path
             d="M 0,0 C 0.584,-1.263 1.201,-2.508 1.863,-3.725 Z"
             style="fill:#454649;fill-opacity:1;fill-rule:nonzero;stroke:none"
             id="path22" /></g><g
           id="g24"
           transform="translate(631.4844,388.7637)"><path
             d="M 0,0 C 0.362,-1.683 0.789,-3.343 1.279,-4.975 0.789,-3.342 0.362,-1.684 0,0 m -1.065,6.546 c 0.209,-1.897 0.488,-3.772 0.856,-5.615 -0.368,1.843 -0.647,3.718 -0.856,5.615 m -0.419,7.19 c 0,-2.006 0.122,-3.983 0.299,-5.943 -0.177,1.961 -0.299,3.936 -0.299,5.943 M 1.538,-5.867 c 0.559,-1.768 1.2,-3.498 1.902,-5.196 -0.702,1.698 -1.342,3.428 -1.902,5.196 m 121.869,44.904 h 0.001 l -0.008,0.015 c -0.962,2.274 -2.086,4.459 -3.292,6.592 L 24.15,237.812 24.102,237.787 c -10.674,21.296 -32.643,35.949 -58.086,35.949 -35.899,0 -65,-29.101 -65,-65 0,-10.455 2.528,-20.299 6.914,-29.05 l -0.049,-0.025 96.613,-193.175 c -0.202,0.438 -0.379,0.887 -0.571,1.328 0.75,-1.722 1.547,-3.42 2.438,-5.062 0.891,-1.64 1.874,-3.22 2.899,-4.771 0.27,-0.409 0.547,-0.811 0.826,-1.213 0.933,-1.346 1.907,-2.66 2.937,-3.929 0.151,-0.186 0.29,-0.381 0.442,-0.566 1.173,-1.414 2.416,-2.763 3.702,-4.073 0.331,-0.337 0.671,-0.662 1.01,-0.991 1.101,-1.074 2.238,-2.109 3.414,-3.104 0.277,-0.234 0.543,-0.479 0.823,-0.709 1.418,-1.159 2.888,-2.252 4.4,-3.291 0.358,-0.244 0.725,-0.472 1.087,-0.709 1.268,-0.834 2.566,-1.622 3.894,-2.366 0.382,-0.215 0.757,-0.437 1.143,-0.644 1.627,-0.869 3.291,-1.676 4.998,-2.407 0.335,-0.144 0.678,-0.267 1.016,-0.405 1.449,-0.593 2.925,-1.13 4.424,-1.619 0.459,-0.149 0.914,-0.303 1.378,-0.442 1.806,-0.544 3.636,-1.028 5.503,-1.415 0.242,-0.05 0.49,-0.081 0.732,-0.129 1.665,-0.325 3.354,-0.576 5.061,-0.772 0.514,-0.059 1.028,-0.115 1.546,-0.162 1.952,-0.177 3.921,-0.299 5.92,-0.299 35.898,0 65,29.102 65,65 0,8.975 -1.82,17.525 -5.109,25.301"
             style="fill:#454649;fill-opacity:1;fill-rule:nonzero;stroke:none"
             id="path26" /></g><g
           id="g28"
           transform="translate(460.6348,626.5752)"><path
             d="m 0,0 -0.049,-0.025 c -10.673,21.296 -32.642,35.95 -58.086,35.95 -25.433,0 -47.396,-14.642 -58.073,-35.925 h -0.068 c 0,0 -98.164,-196.29 -99.081,-198.423 l -0.115,-0.229 h 0.004 c -3.474,-8.166 -5.331,-17.184 -5.155,-26.658 0.629,-33.848 28.16,-62.172 61.981,-63.697 37.267,-1.68 68.007,28.036 68.007,64.932 0,27.518 -17.109,51.013 -41.266,60.485 -9.103,3.569 -13.247,14.101 -8.879,22.848 l 25.776,51.62 c 2.927,5.862 11.291,5.865 14.222,0.004 0,0 82.327,-164.715 82.989,-165.932 10e-4,-0.004 0.002,-0.007 0.002,-0.007 12.037,-22.156 36.576,-36.53 64.146,-33.653 30.612,3.194 55.192,28.399 57.775,59.068 1.153,13.694 -1.999,26.551 -8.173,37.476 z"
             style="fill:#454649;fill-opacity:1;fill-rule:nonzero;stroke:none"
             id="path30" /></g></g></g></g></svg>
