<?xml version="1.0" encoding="UTF-8" standalone="no"?>
<svg
   xmlns:dc="http://purl.org/dc/elements/1.1/"
   xmlns:cc="http://creativecommons.org/ns#"
   xmlns:rdf="http://www.w3.org/1999/02/22-rdf-syntax-ns#"
   xmlns:svg="http://www.w3.org/2000/svg"
   xmlns="http://www.w3.org/2000/svg"
   xmlns:sodipodi="http://sodipodi.sourceforge.net/DTD/sodipodi-0.dtd"
   xmlns:inkscape="http://www.inkscape.org/namespaces/inkscape"
   version="1.1"
   id="svg2"
   xml:space="preserve"
   width="1333.3333"
   height="1333.3333"
   viewBox="0 0 1333.3333 1333.3333"
   sodipodi:docname="Logo22.ai"><metadata
     id="metadata8"><rdf:RDF><cc:Work
         rdf:about=""><dc:format>image/svg+xml</dc:format><dc:type
           rdf:resource="http://purl.org/dc/dcmitype/StillImage" /></cc:Work></rdf:RDF></metadata><defs
     id="defs6"><clipPath
       clipPathUnits="userSpaceOnUse"
       id="clipPath18"><path
         d="M 0,1000 H 1000 V 0 H 0 Z"
         id="path16" /></clipPath></defs><sodipodi:namedview
     pagecolor="#ffffff"
     bordercolor="#666666"
     borderopacity="1"
     objecttolerance="10"
     gridtolerance="10"
     guidetolerance="10"
     inkscape:pageopacity="0"
     inkscape:pageshadow="2"
     inkscape:window-width="640"
     inkscape:window-height="480"
     id="namedview4" /><g
     id="g10"
     inkscape:groupmode="layer"
     inkscape:label="Logo22"
     transform="matrix(1.3333333,0,0,-1.3333333,0,1333.3333)"><g
       id="g12"><g
         id="g14"
         clip-path="url(#clipPath18)"><g
           id="g20"
           transform="translate(751.1035,443.8721)"><path
             d="m 0,0 -146.368,-146.421 c -2.764,-2.765 -5.99,-3.176 -7.667,-3.177 -1.679,0 -4.903,0.411 -7.668,3.174 l -57.041,57.022 32.341,32.351 c 17.277,17.281 26.79,40.255 26.785,64.691 -0.004,24.436 -9.525,47.407 -26.806,64.677 -17.28,17.275 -40.254,26.787 -64.688,26.783 -24.434,-0.004 -47.404,-9.524 -64.677,-26.801 -17.277,-17.28 -26.79,-40.254 -26.785,-64.691 0.004,-24.436 9.524,-47.406 26.805,-64.676 l 32.355,-32.345 -57.021,-57.041 c -2.764,-2.765 -5.99,-3.177 -7.668,-3.177 -1.676,0 -4.903,0.41 -7.668,3.174 l -146.418,146.37 -0.002,0.004 c -2.763,2.76 -3.177,5.984 -3.177,7.663 0,1.679 0.412,4.903 3.176,7.668 l 243.382,243.469 c 4.229,4.235 11.113,4.231 15.338,0.008 L -0.001,15.331 C 2.762,12.571 3.176,9.348 3.176,7.668 3.176,5.989 2.764,2.765 0,0 m -251.085,-57.07 -32.355,32.343 c -8.641,8.635 -13.403,20.125 -13.405,32.343 -0.002,12.219 4.756,23.709 13.396,32.353 8.637,8.637 20.124,13.4 32.345,13.402 12.22,0.002 23.709,-4.756 32.352,-13.395 8.641,-8.636 13.403,-20.125 13.405,-32.344 0.002,-12.218 -4.757,-23.709 -13.396,-32.352 z M 32.328,47.673 -211.144,291.066 c -22.064,22.048 -57.948,22.042 -80.005,-0.018 L -534.532,47.579 C -545.216,36.896 -551.1,22.685 -551.097,7.572 c 0.003,-15.112 5.889,-29.316 16.577,-39.997 l 146.419,-146.37 c 22.064,-22.057 57.951,-22.051 80.008,0.015 l 25.666,25.673 h 0.001 l 31.352,31.364 57.04,-57.018 c 10.686,-10.684 24.894,-16.568 40.007,-16.565 15.11,0.003 29.316,5.89 40.001,16.579 L 32.34,-32.33 c 10.684,10.684 16.567,24.894 16.565,40.007 -0.003,15.111 -5.891,29.32 -16.577,39.996"
             style="fill:#ff3d3d;fill-opacity:1;fill-rule:nonzero;stroke:none"
             id="path22" /></g></g></g></g></svg>
