<?xml version="1.0" encoding="UTF-8" standalone="no"?>
<svg
   xmlns:dc="http://purl.org/dc/elements/1.1/"
   xmlns:cc="http://creativecommons.org/ns#"
   xmlns:rdf="http://www.w3.org/1999/02/22-rdf-syntax-ns#"
   xmlns:svg="http://www.w3.org/2000/svg"
   xmlns="http://www.w3.org/2000/svg"
   xmlns:sodipodi="http://sodipodi.sourceforge.net/DTD/sodipodi-0.dtd"
   xmlns:inkscape="http://www.inkscape.org/namespaces/inkscape"
   version="1.1"
   id="svg2"
   xml:space="preserve"
   width="1333.3333"
   height="1333.3333"
   viewBox="0 0 1333.3333 1333.3333"
   sodipodi:docname="Logo70.ai"><metadata
     id="metadata8"><rdf:RDF><cc:Work
         rdf:about=""><dc:format>image/svg+xml</dc:format><dc:type
           rdf:resource="http://purl.org/dc/dcmitype/StillImage" /></cc:Work></rdf:RDF></metadata><defs
     id="defs6"><clipPath
       clipPathUnits="userSpaceOnUse"
       id="clipPath18"><path
         d="M 0,1000 H 1000 V 0 H 0 Z"
         id="path16" /></clipPath></defs><sodipodi:namedview
     pagecolor="#ffffff"
     bordercolor="#666666"
     borderopacity="1"
     objecttolerance="10"
     gridtolerance="10"
     guidetolerance="10"
     inkscape:pageopacity="0"
     inkscape:pageshadow="2"
     inkscape:window-width="640"
     inkscape:window-height="480"
     id="namedview4" /><g
     id="g10"
     inkscape:groupmode="layer"
     inkscape:label="Logo70"
     transform="matrix(1.3333333,0,0,-1.3333333,0,1333.3333)"><g
       id="g12"><g
         id="g14"
         clip-path="url(#clipPath18)"><g
           id="g20"
           transform="translate(559.3936,490.5566)"><path
             d="m 0,0 c 68.833,66.938 136.813,132.127 193.211,184.745 5.798,5.442 8.599,13.66 6.908,23.377 -3.411,19.107 -22.211,37.851 -41.323,41.217 -139.651,23.749 -279.303,23.749 -418.955,0 -19.111,-3.354 -37.914,-22.122 -41.323,-41.219 -23.823,-137.935 -23.882,-275.866 -0.176,-413.799 0.105,-0.611 0.211,-1.225 0.317,-1.84 1.643,-9.26 7.232,-19.144 15.928,-27.257 16.469,-15.365 37.476,-18.211 48.193,-5.383 35.505,42.215 77.601,90.069 122.172,139.878 8.798,9.927 8.976,25.529 -0.329,35.992 -10,11.243 -27.114,12.391 -38.095,2.775 -0.065,-0.056 -0.129,-0.114 -0.194,-0.171 -28.95,-25.386 -57.251,-49.959 -84.199,-72.938 -7.724,105.459 -6.42,210.914 3.914,316.373 104.446,10.058 208.891,11.52 313.338,4.38 -49.18,-49.097 -104.24,-103.46 -159.61,-157.484 -0.345,-0.336 -0.691,-0.674 -1.036,-1.009 -0.374,-0.384 -0.747,-0.769 -1.121,-1.15 -13.984,-14.948 -13.162,-38.287 1.818,-52.258 82.885,-77.317 165.152,-155.39 229.723,-216.223 7.863,-7.403 22.081,-4.9 33.064,5.558 11.488,10.982 14.911,26.184 7.07,34.582 C 135.758,-144.286 68.416,-73.111 0,0"
             style="fill:#ffdb3d;fill-opacity:1;fill-rule:nonzero;stroke:none"
             id="path22" /></g></g></g></g></svg>
